<svg xmlns="http://www.w3.org/2000/svg" viewBox="0 0 219 230" preserveAspectRatio="xMidYMid meet"><path fill="#010000" d="M160 24c1.788 1.246 1.788 1.246 3.637 2.937l2.119 1.934a644 644 0 0 1 11.924 11.64l2.709 2.7q2.813 2.805 5.622 5.614 3.594 3.593 7.202 7.172 2.789 2.774 5.57 5.557 1.326 1.324 2.657 2.644a884 884 0 0 1 3.696 3.695l2.12 2.117c1.75 1.997 2.893 3.475 3.744 5.99-.29 3.844-1.377 5.906-3.964 8.705-.633.69-1.267 1.378-1.92 2.088a747 747 0 0 1-11.698 11.922l-2.713 2.716q-2.818 2.82-5.64 5.635-3.617 3.61-7.226 7.23-2.79 2.793-5.582 5.581-1.335 1.333-2.666 2.669-1.853 1.854-3.711 3.704l-2.13 2.127c-2.857 2.65-5.11 2.977-9 2.896-1.75-.273-1.75-.273-4.125-1.835-3.363-5.045-2.783-11.797-2.75-17.688l-.012-2.14.004-2.063.004-1.849C148 104 148 104 149 101c-25.243-.123-25.243-.123-50 4l-1.791.5c-9.877 2.917-17.853 7.838-23.084 16.938-6.44 14.53-6.096 31.526-4.148 46.976.028 3.09-.349 4.948-1.977 7.586-2.365.377-2.365.377-5 0-12.189-10.715-19.908-32.644-21.21-48.567-1.118-19.55 1.955-36.716 14.39-52.245 14.278-15.769 37.562-20.73 57.947-22.106 3.578-.156 7.153-.086 10.732-.02l2.292.037c3.794.067 7.579.183 11.37.363q2.082.06 4.167.116l1.981.139c1.938.121 1.938.121 4.331-.717-.074-2.633-.36-4.506-1-7-.2-2.689-.23-5.367-.25-8.062l-.062-2.065c-.037-4.775.763-7.808 3.312-11.873 3.049-1.524 5.727-1.772 9-1"/><path fill="#020101" d="m68.375 38.25 3.083.08 2.878.123 2.58.099C79 39 79 39 80.297 40.407 81 42 81 42 80.907 44.031c-1.594 3.462-4.864 4.222-8.192 5.735-2.638 1.142-2.638 1.142-4.711 2.406-6.055 3.362-12.223 3.333-19.002 3.325C43.254 55.58 38.77 56.67 34 60c-3.596 3.968-5.12 8.11-5.14 13.414l-.018 2.735-.003 2.995-.015 3.159q-.018 4.29-.024 8.579-.005 2.683-.012 5.366-.02 8.402-.027 16.804-.007 9.684-.05 19.367-.034 7.494-.034 14.989 0 4.471-.025 8.942c-.017 3.33-.015 6.66-.008 9.989l-.028 2.97c.034 5.705.78 9.605 3.384 14.691l.75 2.313c2.026 2.734 5.05 3.066 8.25 3.687 3.685.384 7.364.509 11.066.617l3.388.114c14.834.462 29.68.42 44.52.4q6.262-.007 12.524.003 4.905.005 9.81 0 2.31 0 4.62.002c14.733.45 14.733.45 29.072-2.136 1.134-2.017 1.134-2.017 2-4h2c1.754-3.476 2.317-6.581 2.563-10.437l.257-3.41c.183-3.224.162-6.421.11-9.65-.08-15.834-.08-15.834 3.183-19.507 3.613-2.65 6.106-4.195 10.653-3.687C179 139 179 139 180 140a51 51 0 0 1 .177 3.826l.039 2.46.022 2.683.025 2.756q.02 2.9.032 5.8c.017 2.935.061 5.869.105 8.803q.015 2.82.026 5.64l.053 2.634c-.034 9.712-4.202 17.184-10.479 24.398-8.635 8.402-19.198 9.153-30.576 9.13l-3.19.005q-4.311.004-8.622 0c-3.017-.003-6.034 0-9.051 0q-7.6.004-15.199-.005a9360 9360 0 0 0-17.532.002q-7.545.007-15.09.003-4.5-.003-8.997.001-5.019.003-10.038-.007l-2.983.007c-11.185-.035-18.543-1.787-27.222-9.3-10.834-10.94-11.01-23.667-11.004-38.366q.02-3.398.043-6.794.005-3.535.003-7.07.004-7.376.046-14.753c.032-5.66.042-11.318.04-16.978q.002-9.103.032-18.206.005-2.597.006-5.193c.005-3.242.022-6.483.043-9.725l-.002-2.86c.075-7.918.703-16.058 4.793-23.016l1.281-2.258L18 52h2q1.002-2 2-4c12.032-12.061 30.694-10.262 46.375-9.75"/><path fill="#040000" d="M25 74h2c.495 3.97.324 8.002.313 12l.048 3.469.002 3.281.01 3.047L27 98h-3c-.356-1.589-.356-1.589-.328-3.797l.015-2.406.063-2.547.016-2.5c.048-3.778.272-7.089 1.234-10.75z"/><path fill="#080505" d="M179 172h1c.633 5.943.684 12.978-3 18-2.687 0-2.687 0-5-1 .875-2 .875-2 2-4h2c.109-2.073-.073-4.083-.223-6.152L176 177l3-1c.167-2.042.167-2.042 0-4"/><path fill="#090405" d="m176 184 3 1c-.5 2.625-.5 2.625-2 5-2.625-.187-2.625-.187-5-1 1.75-3.875 1.75-3.875 4-5"/><path fill="#0a0809" d="M38 41c-2.528 2.799-4.204 4.458-8 5-.312-1.875-.312-1.875 0-4 3.258-1.85 4.384-2.205 8-1"/><path fill="#090909" d="M27 44c0 3 0 3-1.312 4.387L24 49.687l-1.687 1.325L21 52c0-3 0-3 1.313-4.387l1.687-1.3 1.688-1.325z"/><path fill="#141213" d="m99 56 4 1-3 2zm-6 1h5l-2 2c-1.625-.875-1.625-.875-3-2"/><path fill="#0e0d0d" d="m162 180 3 1c-1.875 2.563-1.875 2.563-4 5l-2-1c1.188-2.625 1.188-2.625 3-5"/><path fill="#080506" d="M26 64h2c.75 2.438.75 2.438 1 5l-2 1v-2c-1.462-1.141-1.462-1.141-3-2z"/><path fill="#030203" d="m59 51 2 2-4 2z"/></svg>